<svg xmlns="http://www.w3.org/2000/svg" xmlns:xlink="http://www.w3.org/1999/xlink" width="400" zoomAndPan="magnify" viewBox="0 0 300 299.999988" height="400" preserveAspectRatio="xMidYMid meet" version="1.0"><defs><clipPath id="acb33c7c23"><path d="M 29.828125 49.117188 L 269.800781 49.117188 L 269.800781 250.867188 L 29.828125 250.867188 Z M 29.828125 49.117188 " clip-rule="nonzero"/></clipPath></defs><rect x="-30" width="360" fill="#ffffff" y="-29.999999" height="359.999986" fill-opacity="1"/><rect x="-30" width="360" fill="#ffffff" y="-29.999999" height="359.999986" fill-opacity="1"/><path fill="#ffe585" d="M 243.378906 55.882812 L 243.378906 249.789062 L 161.441406 249.789062 L 161.441406 55.882812 L 243.378906 55.882812 " fill-opacity="1" fill-rule="nonzero"/><path fill="#f69064" d="M 129.578125 232.359375 L 94.902344 222.066406 L 92.496094 238.265625 C 92.496094 242.648438 95.8125 246.199219 99.910156 246.199219 L 128.148438 246.199219 C 131.765625 246.199219 134.695312 243.0625 134.695312 239.195312 C 134.695312 235.914062 132.570312 233.074219 129.578125 232.359375 " fill-opacity="1" fill-rule="nonzero"/><path fill="#f69064" d="M 229.390625 82.089844 L 229.605469 82.285156 C 229.628906 81.875 229.660156 81.5 229.691406 81.171875 C 229.769531 80.425781 229.210938 79.761719 228.457031 79.707031 L 220.179688 79.113281 C 218.90625 81.453125 218.773438 84.195312 219.703125 86.589844 L 227.359375 83.394531 L 227.730469 84.125 C 228.308594 83.386719 228.933594 82.601562 229.390625 82.089844 " fill-opacity="1" fill-rule="nonzero"/><path fill="#f69064" d="M 235.859375 94.222656 L 235.035156 91.96875 C 234.515625 92.199219 234 92.273438 233.503906 92.050781 C 232.996094 91.824219 232.5625 91.535156 232.175781 91.199219 C 232.050781 91.089844 231.929688 90.972656 231.816406 90.851562 C 231.796875 90.835938 231.777344 90.816406 231.757812 90.796875 C 231.667969 90.695312 231.578125 90.585938 231.492188 90.480469 C 231.457031 90.4375 231.417969 90.398438 231.382812 90.351562 C 231.351562 90.308594 231.324219 90.261719 231.289062 90.21875 C 231.007812 89.824219 230.761719 89.398438 230.5625 88.949219 L 230.558594 88.949219 C 229.675781 86.988281 229.523438 84.59375 229.585938 82.75 C 229.125 83.292969 228.546875 84.019531 228.019531 84.699219 L 229.695312 88.015625 C 229.777344 88.179688 229.84375 88.351562 229.894531 88.515625 C 230.027344 88.472656 230.167969 88.421875 230.316406 88.367188 L 230.519531 88.90625 C 230.335938 88.976562 230.167969 89.035156 230.011719 89.089844 C 230.011719 89.109375 230.011719 89.128906 230.011719 89.148438 C 230.046875 89.539062 230 89.917969 229.882812 90.269531 C 229.84375 90.386719 229.800781 90.496094 229.746094 90.605469 C 229.738281 90.617188 229.730469 90.628906 229.71875 90.644531 C 229.671875 90.738281 229.621094 90.828125 229.5625 90.910156 C 229.542969 90.941406 229.515625 90.964844 229.496094 90.992188 C 229.445312 91.058594 229.390625 91.128906 229.332031 91.1875 C 229.289062 91.230469 229.238281 91.269531 229.191406 91.3125 C 229.148438 91.351562 229.105469 91.394531 229.058594 91.429688 C 228.960938 91.5 228.855469 91.566406 228.742188 91.625 L 227.867188 92.066406 L 227.519531 92.242188 C 227.65625 92.246094 227.792969 92.246094 227.929688 92.246094 L 229.5 96.542969 L 235.859375 94.222656 " fill-opacity="1" fill-rule="nonzero"/><path fill="#f69064" d="M 85.246094 232.613281 L 57.710938 209.15625 L 48.945312 222.996094 C 47.171875 227 48.769531 231.589844 52.511719 233.246094 L 78.332031 244.691406 C 81.636719 246.152344 85.585938 244.476562 87.152344 240.9375 C 88.480469 237.9375 87.6875 234.480469 85.246094 232.613281 " fill-opacity="1" fill-rule="nonzero"/><path fill="#f69064" d="M 93.03125 91.742188 C 93.316406 91.96875 93.617188 92.167969 93.921875 92.355469 L 93.34375 97.121094 L 100.066406 97.933594 L 100.613281 93.398438 C 102.492188 92.949219 104.238281 91.894531 105.527344 90.261719 C 108.566406 86.402344 107.90625 80.808594 104.046875 77.765625 C 100.1875 74.722656 94.589844 75.386719 91.550781 79.246094 C 88.507812 83.105469 89.171875 88.699219 93.03125 91.742188 " fill-opacity="1" fill-rule="nonzero"/><path fill="#f69064" d="M 155.710938 125.683594 C 158.957031 123.855469 157.941406 122.464844 157.941406 122.464844 C 155.921875 117.617188 140.507812 126.042969 140.507812 126.042969 C 140.507812 126.042969 140.476562 126.09375 140.421875 126.183594 L 115.984375 131.773438 L 103.652344 105.5 C 101.820312 101.597656 97.171875 99.917969 93.269531 101.75 C 89.367188 103.582031 87.6875 108.230469 89.523438 112.132812 L 102.488281 139.753906 C 102.3125 140.75 102.328125 141.800781 102.566406 142.851562 C 103.527344 147.050781 107.714844 149.679688 111.914062 148.71875 L 142.425781 141.738281 C 143.460938 142.09375 144.695312 142.351562 146.15625 142.480469 C 154.664062 143.660156 160.585938 143.808594 161.367188 141.382812 C 161.988281 139.460938 160.0625 139.007812 159.246094 138.898438 C 160.277344 138.976562 163.253906 139.039062 163.175781 137.179688 C 163.113281 135.679688 162.035156 135.179688 161.324219 135.011719 C 162.308594 135.09375 164.1875 135.003906 164.84375 133.230469 C 165.535156 130.347656 160.546875 130.648438 160.546875 130.648438 C 160.546875 130.648438 166.050781 130.253906 165.660156 127.433594 C 165.265625 124.617188 155.710938 125.683594 155.710938 125.683594 " fill-opacity="1" fill-rule="nonzero"/><path fill="#af0000" d="M 197.171875 106.472656 L 141.164062 106.472656 C 139.414062 106.472656 137.996094 107.890625 137.996094 109.640625 C 137.996094 111.390625 139.414062 112.808594 141.164062 112.808594 L 141.792969 112.808594 L 141.792969 125.375 C 145.527344 123.484375 156.277344 118.472656 157.941406 122.464844 C 157.941406 122.464844 158.957031 123.855469 155.710938 125.683594 C 155.710938 125.683594 165.265625 124.617188 165.660156 127.433594 C 166.050781 130.253906 160.546875 130.648438 160.546875 130.648438 C 160.546875 130.648438 165.535156 130.347656 164.84375 133.230469 C 164.1875 135.003906 162.308594 135.09375 161.324219 135.011719 C 162.035156 135.179688 163.113281 135.679688 163.175781 137.179688 C 163.253906 139.039062 160.277344 138.976562 159.246094 138.898438 C 160.0625 139.007812 161.988281 139.460938 161.367188 141.382812 C 160.585938 143.808594 154.664062 143.660156 146.15625 142.480469 C 144.382812 142.324219 142.949219 141.980469 141.792969 141.496094 L 141.792969 151.957031 L 196.542969 151.957031 L 196.542969 112.808594 L 197.171875 112.808594 C 198.921875 112.808594 200.335938 111.390625 200.335938 109.640625 C 200.335938 107.890625 198.921875 106.472656 197.171875 106.472656 " fill-opacity="1" fill-rule="nonzero"/><path fill="#af0000" d="M 117.855469 182.699219 L 113.261719 151.109375 C 113.132812 150.21875 112.910156 149.367188 112.609375 148.558594 L 111.914062 148.71875 C 111.675781 148.773438 111.4375 148.8125 111.195312 148.84375 C 111.121094 148.855469 111.046875 148.859375 110.96875 148.867188 C 110.804688 148.886719 110.636719 148.898438 110.476562 148.902344 C 110.390625 148.910156 110.304688 148.910156 110.21875 148.910156 C 110.058594 148.910156 109.902344 148.90625 109.746094 148.898438 C 109.664062 148.894531 109.582031 148.890625 109.5 148.882812 C 109.300781 148.867188 109.105469 148.839844 108.910156 148.808594 C 108.839844 148.796875 108.769531 148.785156 108.699219 148.769531 C 108.523438 148.734375 108.34375 148.695312 108.167969 148.648438 C 108.066406 148.621094 107.972656 148.59375 107.875 148.5625 C 107.757812 148.523438 107.640625 148.484375 107.527344 148.445312 C 107.417969 148.40625 107.3125 148.363281 107.207031 148.320312 C 107.105469 148.28125 107.007812 148.234375 106.910156 148.191406 C 106.800781 148.136719 106.6875 148.089844 106.582031 148.03125 C 106.503906 147.992188 106.429688 147.949219 106.355469 147.90625 C 106.113281 147.769531 105.878906 147.621094 105.652344 147.457031 C 105.609375 147.429688 105.566406 147.402344 105.523438 147.367188 C 105.40625 147.28125 105.292969 147.191406 105.183594 147.09375 C 105.121094 147.046875 105.058594 146.992188 105 146.941406 C 104.902344 146.851562 104.804688 146.761719 104.707031 146.667969 C 104.664062 146.625 104.621094 146.582031 104.578125 146.535156 C 104.574219 146.53125 104.566406 146.523438 104.558594 146.515625 C 104.167969 146.113281 103.816406 145.664062 103.519531 145.175781 C 103.089844 144.472656 102.761719 143.695312 102.566406 142.851562 C 102.265625 141.519531 102.320312 140.195312 102.671875 138.96875 L 100 138.171875 C 92.765625 136.011719 85.183594 139.777344 82.4375 146.636719 C 82.132812 147.402344 81.921875 148.199219 81.75 149.003906 L 76.664062 177.207031 C 75.507812 181.246094 73.886719 185.140625 71.832031 188.804688 L 51.167969 217.976562 L 77.984375 227.046875 L 91.476562 201.789062 C 93.335938 198.304688 94.785156 194.628906 95.8125 190.824219 L 92.710938 233.183594 L 120.789062 229.8125 L 118.507812 189.195312 C 118.386719 187.023438 118.167969 184.855469 117.855469 182.699219 " fill-opacity="1" fill-rule="nonzero"/><path fill="#af0000" d="M 239.976562 79.839844 C 238.390625 73.179688 231.707031 69.070312 225.046875 70.652344 C 221.546875 71.488281 218.75 73.730469 217.117188 76.636719 C 216.546875 77.640625 217.222656 78.898438 218.378906 78.984375 L 228.457031 79.707031 C 229.210938 79.761719 229.769531 80.425781 229.691406 81.171875 C 229.40625 83.949219 229.28125 90.152344 233.503906 92.050781 C 234.589844 92.542969 235.765625 91.609375 236.886719 90.699219 C 239.804688 87.757812 241.007812 84.167969 239.976562 79.839844 " fill-opacity="1" fill-rule="nonzero"/><path fill="#ffb02d" d="M 205.109375 127.582031 L 204.53125 127.546875 L 203.382812 146.125 L 203.960938 146.160156 Z M 223.367188 203.34375 L 223.859375 203.644531 L 229.390625 194.660156 L 228.898438 194.359375 Z M 218.429688 196.800781 L 218.683594 197.324219 L 229.207031 192.21875 L 228.957031 191.699219 Z M 225.96875 246.992188 L 197.488281 246.992188 L 197.488281 247.570312 L 226.441406 247.570312 L 226.488281 247.339844 C 228.105469 239.246094 237.246094 237.363281 237.339844 237.34375 L 237.226562 236.777344 C 237.132812 236.792969 227.789062 238.710938 225.96875 246.992188 Z M 217.738281 239.570312 L 207.972656 234.625 L 207.710938 235.140625 L 217.476562 240.085938 Z M 222.339844 233.964844 L 222.425781 233.390625 L 210.859375 231.636719 L 210.773438 232.207031 Z M 233.367188 217.113281 L 233.296875 216.539062 L 209.222656 219.496094 L 209.292969 220.070312 Z M 235.007812 169.058594 L 229.914062 153.605469 L 229.367188 153.785156 L 234.457031 169.242188 Z M 242.636719 128.914062 L 239.742188 137.738281 C 237.617188 144.21875 231.394531 148.324219 224.59375 147.71875 L 218.585938 147.179688 L 218.53125 147.757812 L 224.542969 148.292969 C 225.007812 148.335938 225.460938 148.355469 225.917969 148.355469 C 232.433594 148.355469 238.226562 144.214844 240.292969 137.917969 L 243.183594 129.09375 Z M 225.976562 105.367188 L 221.984375 116.261719 L 222.527344 116.457031 L 224.878906 110.046875 C 225.71875 110.601562 228.597656 112.910156 229.886719 119.199219 L 230.453125 119.082031 C 229.058594 112.28125 225.898438 109.980469 225.082031 109.488281 L 226.519531 105.566406 C 228.640625 99.777344 235.011719 96.589844 240.71875 98.449219 C 241.472656 98.695312 242.195312 99.015625 242.871094 99.40625 L 243.160156 98.90625 C 242.449219 98.496094 241.6875 98.15625 240.898438 97.898438 C 234.898438 95.9375 228.203125 99.289062 225.976562 105.367188 Z M 223.214844 86.632812 L 223.433594 87.121094 L 219.269531 88.992188 L 220.003906 90.527344 C 220.042969 90.601562 220.085938 90.667969 220.125 90.738281 L 222.5 89.777344 L 222.699219 90.273438 L 220.410156 91.199219 C 221.769531 93.140625 224.179688 93.925781 226.121094 92.945312 L 228.742188 91.625 C 229.652344 91.164062 230.121094 90.148438 230.011719 89.089844 C 230.167969 89.035156 230.335938 88.976562 230.519531 88.90625 L 230.316406 88.367188 C 230.167969 88.421875 230.027344 88.472656 229.894531 88.515625 C 229.84375 88.351562 229.777344 88.179688 229.695312 88.015625 L 228.019531 84.699219 C 228.636719 83.902344 229.335938 83.019531 229.820312 82.476562 L 229.390625 82.089844 C 228.933594 82.601562 228.308594 83.386719 227.730469 84.125 L 227.359375 83.394531 L 218.382812 87.140625 L 219.035156 88.511719 Z M 196.273438 126.992188 C 196.273438 126.992188 181.71875 117.167969 179.253906 121.808594 C 179.253906 121.808594 178.109375 123.097656 181.171875 125.21875 C 181.171875 125.21875 171.757812 123.265625 171.105469 126.035156 C 170.453125 128.804688 175.898438 129.710938 175.898438 129.710938 C 175.898438 129.710938 170.957031 128.949219 171.375 131.882812 C 171.867188 133.707031 173.730469 133.972656 174.714844 133.984375 C 173.992188 134.085938 172.871094 134.480469 172.667969 135.96875 C 172.417969 137.8125 175.386719 138.027344 176.425781 138.046875 C 175.597656 138.078125 173.640625 138.351562 174.082031 140.324219 C 174.632812 142.808594 180.539062 143.214844 189.121094 142.832031 C 204.507812 142.898438 196.273438 126.992188 196.273438 126.992188 Z M 111.683594 115.902344 L 122.644531 132.613281 L 103.269531 145.324219 L 101.644531 142.84375 L 90.339844 143.132812 C 84.667969 143.277344 79.953125 138.800781 79.808594 133.128906 L 79.277344 112.480469 C 79.046875 103.5625 86.089844 96.148438 95.007812 95.917969 C 103.929688 95.6875 111.34375 102.734375 111.574219 111.652344 L 111.683594 115.902344 " fill-opacity="1" fill-rule="nonzero"/><g clip-path="url(#acb33c7c23)"><path fill="#0c1b30" d="M 249.816406 250.226562 L 249.816406 49.121094 L 154.265625 49.121094 L 154.265625 106.472656 L 154.84375 106.472656 L 154.84375 49.699219 L 249.238281 49.699219 L 249.238281 250.226562 L 243.320312 250.226562 L 243.320312 250.257812 L 242.691406 250.257812 L 242.691406 250.835938 L 243.320312 250.835938 L 243.320312 250.867188 L 269.957031 250.867188 L 269.957031 250.226562 Z M 95.148438 232.875 L 94.671875 232.546875 L 91.089844 237.726562 L 91.566406 238.054688 Z M 106.585938 85.550781 C 106.585938 86.019531 106.96875 86.398438 107.4375 86.398438 C 107.90625 86.398438 108.285156 86.019531 108.285156 85.550781 C 108.285156 85.082031 107.90625 84.703125 107.4375 84.703125 C 106.96875 84.703125 106.585938 85.082031 106.585938 85.550781 Z M 106.007812 85.550781 C 106.007812 84.765625 106.652344 84.125 107.4375 84.125 C 108.222656 84.125 108.863281 84.765625 108.863281 85.550781 C 108.863281 86.335938 108.222656 86.976562 107.4375 86.976562 C 106.652344 86.976562 106.007812 86.335938 106.007812 85.550781 Z M 103.003906 88.382812 C 103.144531 89.292969 103.929688 89.992188 104.878906 89.992188 C 105.828125 89.992188 106.613281 89.292969 106.753906 88.382812 Z M 102.40625 87.804688 L 107.355469 87.804688 L 107.355469 88.09375 C 107.355469 89.460938 106.242188 90.570312 104.878906 90.570312 C 103.515625 90.570312 102.40625 89.460938 102.40625 88.09375 Z M 103.230469 82.835938 C 102.367188 82.835938 101.664062 83.539062 101.664062 84.40625 L 102.242188 84.40625 C 102.242188 83.859375 102.6875 83.417969 103.230469 83.417969 C 103.484375 83.417969 103.710938 83.515625 103.882812 83.667969 C 103.515625 83.726562 103.230469 84.027344 103.230469 84.414062 C 103.230469 84.839844 103.578125 85.183594 104.003906 85.183594 C 104.429688 85.183594 104.773438 84.839844 104.773438 84.414062 C 104.773438 84.410156 104.773438 84.410156 104.773438 84.40625 L 104.800781 84.40625 C 104.800781 83.539062 104.097656 82.835938 103.230469 82.835938 Z M 90.335938 159.59375 C 90.335938 162.359375 92.585938 164.609375 95.351562 164.609375 C 98.113281 164.609375 100.363281 162.359375 100.363281 159.59375 L 100.363281 151.574219 C 100.363281 151.003906 99.898438 150.535156 99.324219 150.535156 L 91.375 150.535156 C 90.800781 150.535156 90.335938 151.003906 90.335938 151.574219 Z M 91.375 149.957031 L 99.324219 149.957031 C 100.214844 149.957031 100.941406 150.683594 100.941406 151.574219 L 100.941406 159.59375 C 100.941406 162.679688 98.433594 165.1875 95.351562 165.1875 C 92.265625 165.1875 89.757812 162.679688 89.757812 159.59375 L 89.757812 151.574219 C 89.757812 150.683594 90.484375 149.957031 91.375 149.957031 Z M 83.492188 159.03125 C 83.167969 161.34375 81.320312 163.113281 78.996094 163.328125 L 79.050781 163.90625 C 81.644531 163.664062 83.707031 161.695312 84.066406 159.113281 L 85.179688 151.171875 C 85.242188 150.746094 85.128906 150.320312 84.871094 149.972656 C 84.609375 149.628906 84.230469 149.40625 83.804688 149.34375 L 81.730469 149.054688 L 81.648438 149.628906 L 83.722656 149.917969 C 83.996094 149.957031 84.242188 150.101562 84.410156 150.320312 C 84.574219 150.542969 84.644531 150.816406 84.605469 151.089844 Z M 94.519531 175.792969 C 95.703125 183.929688 95.945312 192.214844 95.238281 200.410156 L 95.167969 201.230469 L 95.746094 201.28125 L 95.816406 200.460938 C 96.527344 192.222656 96.28125 183.894531 95.09375 175.707031 C 94.691406 172.960938 93.175781 170.449219 90.933594 168.8125 L 85.425781 164.796875 L 85.085938 165.265625 L 90.589844 169.28125 C 92.710938 170.824219 94.140625 173.199219 94.519531 175.792969 Z M 98.101562 237.058594 L 98.59375 232.746094 L 98.019531 232.679688 L 97.523438 236.992188 Z M 101.75 81.875 L 102.152344 82.292969 C 103.300781 81.183594 104.335938 81.679688 104.378906 81.699219 L 104.644531 81.1875 C 104.589844 81.15625 103.210938 80.464844 101.75 81.875 Z M 84.613281 129.894531 C 86.292969 138.425781 90.714844 143 90.757812 143.046875 L 91.171875 142.640625 C 91.128906 142.597656 86.824219 138.132812 85.179688 129.78125 Z M 95.421875 85.28125 C 95.730469 85.28125 95.996094 85.382812 96.210938 85.585938 L 96.609375 85.164062 C 96.28125 84.855469 95.847656 84.695312 95.40625 84.703125 C 94.480469 84.726562 93.746094 85.5 93.769531 86.429688 C 93.792969 87.339844 94.542969 88.066406 95.449219 88.066406 C 95.464844 88.066406 95.480469 88.066406 95.492188 88.066406 L 95.480469 87.484375 C 94.859375 87.503906 94.363281 87.019531 94.347656 86.410156 C 94.332031 85.804688 94.816406 85.296875 95.421875 85.28125 Z M 49.886719 220.742188 L 55.816406 218.039062 L 55.574219 217.515625 L 49.644531 220.214844 Z M 54.078125 222.441406 L 58.710938 218.976562 L 58.363281 218.511719 L 53.730469 221.980469 Z M 64.945312 111.042969 L 65.363281 111.136719 L 72.914062 112.847656 L 73.25 112.921875 L 73.25 112.90625 C 77.273438 113.691406 81.238281 112.28125 83.886719 109.492188 C 83.15625 112.5625 83.628906 115.910156 85.492188 118.75 L 101.402344 143 L 101.882812 142.683594 L 85.976562 118.433594 C 83.945312 115.339844 83.648438 111.613281 84.824219 108.375 C 85.445312 107.523438 85.953125 106.578125 86.328125 105.550781 C 87.105469 104.496094 88.066406 103.550781 89.222656 102.792969 C 91.746094 101.136719 94.761719 100.566406 97.71875 101.175781 C 100.671875 101.789062 103.210938 103.519531 104.863281 106.039062 L 106.007812 107.78125 C 103.789062 111.867188 103.757812 120.9375 103.757812 121.324219 L 104.335938 121.324219 C 104.335938 121.234375 104.367188 112.433594 106.371094 108.335938 L 111.441406 116.0625 L 111.925781 115.746094 L 105.347656 105.722656 C 101.753906 100.25 94.378906 98.714844 88.90625 102.308594 C 88.101562 102.835938 87.394531 103.453125 86.765625 104.125 C 86.765625 104.117188 86.769531 104.109375 86.769531 104.101562 L 90.359375 88.253906 C 90.925781 89.578125 91.820312 90.785156 93.03125 91.742188 C 93.316406 91.96875 93.617188 92.175781 93.921875 92.359375 L 94.699219 89.503906 C 94.339844 89.398438 93.988281 89.226562 93.675781 88.976562 C 92.371094 87.953125 92.148438 86.0625 93.171875 84.757812 C 94.070312 83.621094 95.625 83.308594 96.871094 83.929688 C 102.757812 82.363281 104.046875 77.765625 104.046875 77.765625 C 100.1875 74.722656 94.589844 75.386719 91.550781 79.246094 C 91.0625 79.863281 90.679688 80.53125 90.382812 81.222656 C 89.296875 78.230469 86.765625 75.832031 83.429688 75.078125 C 78.226562 73.902344 73.050781 77.164062 71.875 82.371094 L 68.53125 97.144531 L 68.113281 97.046875 C 64.246094 96.175781 60.40625 98.597656 59.53125 102.460938 C 58.65625 106.324219 61.078125 110.167969 64.945312 111.042969 Z M 59.808594 223.300781 C 60.539062 221.839844 60.667969 221.371094 60.679688 221.320312 L 60.121094 221.179688 C 60.121094 221.183594 59.992188 221.636719 59.292969 223.039062 Z M 52.417969 217.546875 L 52.300781 216.980469 L 46.992188 218.074219 L 47.105469 218.640625 Z M 238.59375 244.261719 C 238.75 243.417969 238.6875 242.546875 238.472656 241.714844 L 237.285156 237.0625 L 237.339844 237.34375 C 237.246094 237.363281 228.105469 239.246094 226.488281 247.339844 L 226.441406 247.570312 L 197.652344 247.570312 C 198.410156 248.769531 199.503906 249.699219 200.792969 250.210938 L 154.84375 250.210938 L 154.84375 151.957031 L 154.265625 151.957031 L 154.265625 250.210938 L 144.835938 250.210938 L 144.835938 250.226562 L 133.433594 250.226562 C 134.265625 249.792969 134.835938 248.933594 134.835938 247.933594 C 134.835938 246.5 133.675781 245.339844 132.242188 245.339844 L 118.273438 245.339844 L 121.421875 240.488281 C 130.628906 239.777344 134.03125 242.636719 134.066406 242.667969 L 134.449219 242.234375 C 134.304688 242.101562 130.964844 239.257812 121.820312 239.875 L 124.515625 235.726562 C 133.003906 235.828125 134.414062 238.699219 134.429688 238.730469 L 134.960938 238.5 C 134.902344 238.363281 133.496094 235.335938 124.886719 235.152344 L 126.59375 232.523438 C 127.246094 231.523438 126.960938 230.183594 125.960938 229.535156 C 124.957031 228.886719 123.621094 229.167969 122.972656 230.171875 L 113.203125 245.210938 C 113.175781 245.253906 113.160156 245.296875 113.140625 245.339844 L 95 245.339844 C 93.566406 245.339844 92.40625 246.5 92.40625 247.933594 C 92.40625 248.933594 92.976562 249.792969 93.804688 250.226562 L 82.5625 250.226562 C 83.066406 249.964844 83.496094 249.546875 83.742188 248.984375 C 84.324219 247.675781 83.730469 246.140625 82.421875 245.558594 L 69.652344 239.902344 L 74.496094 236.742188 C 83.199219 239.824219 85.15625 243.816406 85.171875 243.859375 L 85.699219 243.617188 C 85.617188 243.4375 83.71875 239.488281 75.105469 236.34375 L 79.253906 233.640625 C 86.972656 237.171875 87.097656 240.375 87.097656 240.40625 L 87.386719 240.40625 L 87.675781 240.410156 C 87.679688 240.261719 87.625 236.921875 79.824219 233.269531 L 82.449219 231.554688 C 83.453125 230.90625 83.730469 229.566406 83.082031 228.566406 C 82.429688 227.566406 81.089844 227.285156 80.09375 227.9375 L 79.019531 228.636719 L 77.453125 224.75 L 76.917969 224.96875 L 78.527344 228.960938 L 65.066406 237.734375 C 65.027344 237.761719 64.996094 237.792969 64.957031 237.824219 L 48.375 230.472656 C 47.0625 229.890625 45.53125 230.484375 44.949219 231.796875 C 44.367188 233.105469 44.960938 234.640625 46.269531 235.222656 L 80.136719 250.226562 L 29.828125 250.226562 L 29.828125 250.867188 L 144.835938 250.867188 L 144.835938 250.882812 L 242.535156 250.882812 L 242.535156 250.210938 L 233.765625 250.210938 C 236.21875 249.292969 238.085938 247.039062 238.59375 244.261719 Z M 83.214844 217.503906 L 57.800781 208.882812 L 57.617188 209.429688 L 83.03125 218.050781 Z M 102.550781 234.144531 C 102.625 232.515625 102.554688 232.035156 102.542969 231.984375 L 101.972656 232.082031 C 101.976562 232.085938 102.046875 232.554688 101.96875 234.117188 Z M 71.230469 229.496094 L 72.652344 223.234375 L 72.085938 223.105469 L 70.667969 229.367188 Z M 62.398438 226.492188 L 66.410156 221.964844 L 65.976562 221.578125 L 61.960938 226.109375 Z M 75.066406 228.441406 L 75.066406 224.429688 L 74.488281 224.429688 L 74.488281 228.441406 Z M 214.269531 128.40625 L 205.109375 127.59375 L 203.960938 146.160156 L 203.632812 146.140625 L 218.300781 147.449219 L 206.964844 185.0625 C 206.519531 186.539062 206.199219 188.046875 206.039062 189.578125 C 206.03125 189.660156 206.023438 189.738281 206.015625 189.820312 C 205.84375 191.519531 205.882812 193.234375 206.074219 194.933594 L 207.429688 205.519531 L 161.585938 205.519531 L 161.585938 206.097656 L 207.503906 206.097656 L 209.257812 219.789062 L 209.222656 219.496094 L 233.277344 216.542969 L 231.234375 206.097656 L 243.320312 206.097656 L 243.320312 205.519531 L 231.121094 205.519531 L 229.707031 198.265625 C 229.460938 197.183594 229.289062 196.089844 229.1875 194.992188 L 223.859375 203.644531 L 223.367188 203.34375 L 228.898438 194.359375 L 229.15625 194.515625 C 229.101562 193.769531 229.074219 193.023438 229.085938 192.277344 L 218.683594 197.324219 L 218.429688 196.800781 L 228.957031 191.699219 L 229.082031 191.957031 C 229.136719 189.839844 229.457031 187.730469 230.039062 185.679688 L 234.730469 169.148438 L 234.457031 169.242188 L 229.367188 153.785156 L 229.914062 153.605469 L 235.007812 169.058594 L 234.730469 169.148438 L 242.910156 193.984375 L 242.910156 129.929688 L 240.292969 137.917969 C 238.226562 144.214844 232.433594 148.355469 225.917969 148.355469 C 225.460938 148.355469 225.007812 148.335938 224.542969 148.292969 L 218.53125 147.757812 L 218.585938 147.179688 L 224.59375 147.71875 C 231.394531 148.324219 237.617188 144.21875 239.742188 137.738281 L 242.636719 128.914062 L 242.910156 129.003906 L 242.910156 99.335938 L 242.871094 99.40625 C 242.195312 99.015625 241.472656 98.695312 240.71875 98.449219 C 235.011719 96.589844 228.640625 99.777344 226.519531 105.566406 L 225.082031 109.488281 C 225.898438 109.980469 229.058594 112.28125 230.453125 119.082031 L 229.886719 119.199219 C 228.597656 112.910156 225.71875 110.601562 224.878906 110.046875 L 222.527344 116.457031 L 222.203125 116.339844 L 222.226562 116.445312 L 218.925781 125.449219 C 218.222656 127.378906 216.3125 128.589844 214.269531 128.40625 Z M 201.648438 236.816406 C 198.65625 237.535156 196.53125 240.375 196.53125 243.652344 C 196.53125 244.980469 196.886719 246.21875 197.488281 247.277344 L 197.488281 246.992188 L 225.96875 246.992188 C 227.789062 238.714844 237.128906 236.792969 237.226562 236.777344 L 233.332031 216.824219 L 233.367188 217.113281 L 209.296875 220.070312 L 210.816406 231.921875 L 210.859375 231.636719 L 222.425781 233.390625 L 222.339844 233.964844 L 210.851562 232.21875 L 211.066406 233.875 L 208.238281 234.757812 L 217.738281 239.570312 L 217.476562 240.085938 L 207.710938 235.140625 L 207.839844 234.882812 Z M 219.171875 91.125 L 219.375 91.625 L 222.699219 90.273438 L 222.5 89.777344 Z M 231.796875 90.824219 C 231.398438 90.40625 231.0625 89.933594 230.789062 89.421875 C 230.117188 90.269531 229.03125 91.554688 227.484375 92.257812 L 228.039062 93.8125 C 228.039062 93.8125 230.0625 92.648438 231.796875 90.824219 Z M 161.613281 134.796875 L 157.824219 134.445312 L 157.769531 135.019531 L 161.558594 135.375 Z M 155.761719 138.828125 L 159.871094 139.214844 L 159.921875 138.640625 L 155.816406 138.253906 Z M 222.113281 115.90625 L 225.976562 105.367188 C 228.203125 99.289062 234.898438 95.9375 240.898438 97.898438 C 241.601562 98.128906 242.273438 98.429688 242.910156 98.777344 L 242.910156 94.128906 C 240.152344 93.085938 237.070312 92.789062 233.964844 93.433594 C 226.332031 95.011719 221.082031 101.730469 221.082031 109.234375 C 221.082031 110.316406 221.191406 111.414062 221.414062 112.519531 Z M 224.167969 82.757812 C 223.8125 82.535156 223.390625 82.46875 222.980469 82.5625 C 222.574219 82.660156 222.226562 82.90625 222.003906 83.261719 C 221.785156 83.621094 221.714844 84.039062 221.8125 84.449219 L 222.375 84.316406 C 222.316406 84.058594 222.359375 83.792969 222.5 83.570312 C 222.640625 83.34375 222.859375 83.1875 223.113281 83.128906 C 223.371094 83.066406 223.636719 83.109375 223.863281 83.25 C 224.089844 83.390625 224.242188 83.609375 224.304688 83.867188 L 224.867188 83.734375 C 224.773438 83.328125 224.523438 82.980469 224.167969 82.757812 Z M 197.171875 112.519531 L 141.164062 112.519531 L 141.164062 113.097656 L 197.171875 113.097656 Z M 223.910156 81.785156 L 224.207031 81.292969 C 222.46875 80.25 221.28125 81.234375 221.230469 81.277344 L 221.609375 81.714844 C 221.617188 81.710938 222.519531 80.957031 223.910156 81.785156 Z M 233.761719 81.703125 C 231.574219 80.402344 225.296875 77.003906 218.695312 76.484375 C 218.648438 76.476562 218.601562 76.476562 218.554688 76.476562 C 217.898438 76.476562 217.300781 76.84375 217.035156 77.414062 C 216.558594 78.453125 216.148438 80.246094 216.910156 82.859375 C 217.183594 83.789062 217.96875 84.472656 218.914062 84.597656 C 221.050781 84.882812 225.53125 85.359375 232.386719 85.496094 C 232.023438 85.089844 231.796875 84.558594 231.796875 83.96875 C 231.796875 82.8125 232.652344 81.867188 233.761719 81.703125 Z M 235.03125 81.847656 L 235.027344 81.875 C 235.832031 82.230469 236.390625 83.035156 236.390625 83.96875 C 236.390625 85.238281 235.363281 86.265625 234.09375 86.265625 C 233.757812 86.265625 233.441406 86.191406 233.152344 86.0625 C 230.480469 86.019531 228.144531 85.925781 226.15625 85.808594 L 226.1875 85.886719 L 223.433594 87.121094 L 218.667969 89.261719 L 218.449219 88.773438 L 223.214844 86.632812 L 225.183594 85.75 C 222.234375 85.554688 220.121094 85.316406 218.84375 85.148438 C 217.679688 84.992188 216.714844 84.152344 216.378906 83.011719 C 215.570312 80.234375 216.015625 78.308594 216.535156 77.183594 C 216.910156 76.359375 217.796875 75.859375 218.738281 75.929688 C 227.03125 76.585938 234.808594 81.695312 234.882812 81.746094 Z M 229.621094 82.042969 C 229.644531 81.730469 229.664062 81.433594 229.691406 81.171875 C 229.769531 80.425781 229.210938 79.761719 228.457031 79.707031 L 222.203125 79.257812 C 223.441406 80.488281 225.734375 82.070312 229.425781 82.179688 C 229.488281 82.128906 229.558594 82.089844 229.621094 82.042969 Z M 161.253906 130.355469 L 157.925781 130.574219 L 157.960938 131.152344 L 161.289062 130.933594 Z M 114.773438 229 L 119.757812 231.839844 L 120.042969 231.335938 L 115.0625 228.5 Z M 148.203125 126.921875 L 155.746094 125.96875 L 155.675781 125.394531 L 148.132812 126.347656 Z M 93.707031 220.347656 L 119.9375 216.9375 L 119.863281 216.363281 L 93.632812 219.773438 Z M 181.234375 124.933594 L 181.113281 125.5 L 188.53125 127.148438 L 188.65625 126.585938 Z M 106.5 235.363281 L 107.066406 235.242188 L 106.269531 231.527344 L 105.703125 231.648438 Z M 195.207031 145.390625 L 203.382812 146.117188 L 204.53125 127.546875 L 204.734375 127.558594 L 196.859375 126.855469 Z M 175.769531 138.304688 L 179.898438 138.304688 L 179.898438 137.722656 L 175.769531 137.722656 Z M 114.265625 234.835938 L 114.703125 234.453125 L 110.566406 229.671875 L 110.128906 230.050781 Z M 175.128906 129.925781 L 178.421875 130.453125 L 178.515625 129.882812 L 175.21875 129.355469 Z M 174.445312 133.746094 L 178.253906 133.746094 L 178.253906 134.324219 L 174.445312 134.324219 L 174.445312 133.746094 " fill-opacity="1" fill-rule="nonzero"/></g></svg>