<?xml version="1.0" encoding="UTF-8"?>
<svg id="Layer_1" data-name="Layer 1" xmlns="http://www.w3.org/2000/svg" xmlns:xlink="http://www.w3.org/1999/xlink" viewBox="0 0 196.27 196.27">
  <defs>
    <style>
      .cls-1 {
        fill: none;
      }

      .cls-1, .cls-2 {
        stroke-width: 0px;
      }

      .cls-3 {
        clip-path: url(#clippath);
      }

      .cls-2 {
        fill: #ff3131;
      }
    </style>
    <clipPath id="clippath">
      <rect class="cls-1" x="0" width="196.27" height="196.27"/>
    </clipPath>
  </defs>
  <g class="cls-3">
    <path class="cls-2" d="M64.57,105.34c1.11,3.59,2.35,7.2,3.71,10.82-30.34-5.14-54.17-18.44-63.05-35.24,10.63,12.95,32.82,22.42,59.34,24.42ZM191.04,66.46c-.11,27.3-38.37,49.66-87,51.84-3.07-4.84-5.83-9.54-8.29-14.11,32.28-4.96,55.97-21.26,55.97-40.6,0-23.27-34.31-42.13-76.62-42.13-18.36,0-35.21,3.55-48.41,9.47,17.32-10.29,42.07-16.73,69.57-16.73,33.08,0,62.2,9.32,79.16,23.45C157.45,14.73,129.51,0,98.13,0,89.89,0,81.88,1.02,74.23,2.93c-.47,1.34-1.34,4.15-2.14,8.28-.59.08-1.17.16-1.75.25,1.13-2.83,2.38-5.66,3.75-8.49C31.52,13.69,0,52.22,0,98.13c0,54.2,43.94,98.13,98.13,98.13,8.52,0,16.79-1.08,24.66-3.13-2.14-.88-4.06-2.26-5.59-4.05-16.41-19.26-70.4-89.65-51.75-162.64,1.64-.12,3.29-.21,4.95-.26-1.1,28.64,7.95,80.49,68.5,143.25,4.75,4.93,5.13,11.6,2.51,16.79,32.48-15.99,54.84-49.43,54.84-88.09,0-11.09-1.84-21.74-5.23-31.68"/>
  </g>
</svg>